<svg xmlns="http://www.w3.org/2000/svg" version="1.1" xmlns:xlink="http://www.w3.org/1999/xlink" xmlns:svgjs="http://svgjs.dev/svgjs" width="2000" height="1500" viewBox="0 0 2000 1500"><rect width="2000" height="1500" fill="#000000"></rect><g transform="matrix(0.75,0,0,0.75,249.090909090909,278.98548387096776)"><svg viewBox="0 0 396 248" data-background-color="#5e1914" preserveAspectRatio="xMidYMid meet" height="1252" width="2000" xmlns="http://www.w3.org/2000/svg" xmlns:xlink="http://www.w3.org/1999/xlink"><g id="tight-bounds" transform="matrix(1,0,0,1,0.2400000000000091,0.4000000000000057)"><svg viewBox="0 0 395.52 247.2" height="247.2" width="395.52"><g><svg></svg></g><g><svg viewBox="0 0 395.52 247.2" height="247.2" width="395.52"><g transform="matrix(1,0,0,1,122.37587423580786,47.215199999999996)"><svg viewBox="0 0 150.76825152838427 152.7696" height="152.7696" width="150.76825152838427"><g><svg viewBox="0 0 150.76825152838427 152.7696" height="152.7696" width="150.76825152838427"><g><svg viewBox="0 0 150.76825152838427 152.7696" height="152.7696" width="150.76825152838427"><g><svg viewBox="0 0 150.76825152838427 152.7696" height="152.7696" width="150.76825152838427"><g id="textblocktransform"><svg viewBox="0 0 150.76825152838427 152.7696" height="152.7696" width="150.76825152838427" id="textblock"><g><svg viewBox="0 0 150.76825152838427 152.7696" height="152.7696" width="150.76825152838427"><g transform="matrix(1,0,0,1,0,0)"><svg width="150.76825152838427" viewBox="1.46 -33.2 33.11 33.540000000000006" height="152.7696" data-palette-color="#ffffff"><path d="M3.17-32.42L3.17-32.42Q6.79-33.2 10.01-33.2 13.23-33.2 15.75-32.96 18.26-32.71 20.8-32.03L20.8-32.03Q26.17-30.52 27.44-27.93L27.44-27.93Q27.78-27.39 27.78-26.66L27.78-26.66Q27.78-24.51 24.02-22.02L24.02-22.02Q21.53-20.36 16.89-18.65L16.89-18.65Q28.27-18.02 32.32-15.33L32.32-15.33Q34.57-13.92 34.57-12.01L34.57-12.01Q34.57-9.38 30.86-6.54L30.86-6.54Q26.81-3.52 20.51-1.51L20.51-1.51Q14.7 0.34 9.72 0.34L9.72 0.34Q5.91 0.34 3.17-0.78L3.17-0.78Q3.08-3.91 2.93-7.23L2.93-7.23Q2.54-14.6 2.54-19.65 2.54-24.71 2.88-30.18L2.88-30.18Q2.34-30.18 1.9-30.3 1.46-30.42 1.46-31.25L1.46-31.25Q1.46-32.42 3.17-32.42ZM6.4-14.6L7.57-3.22Q15.43-3.66 20.46-5.1 25.49-6.54 27.71-8.23 29.93-9.91 29.93-11.47L29.93-11.47Q29.93-13.53 27-14.75L27-14.75Q23.83-16.02 18.58-16.02 13.33-16.02 6.4-14.6L6.4-14.6ZM12.11-30.03L12.11-30.03 10.89-30.03Q6.88-30.03 6.4-29.2L6.4-29.2 5.91-19.38Q10.3-19.38 16.6-21.48L16.6-21.48Q20.7-22.9 22.61-24.61L22.61-24.61Q23.58-25.49 23.58-26.42 23.58-27.34 22.88-27.95 22.17-28.56 21.07-28.96 19.97-29.35 18.63-29.57 17.29-29.79 16.02-29.88L16.02-29.88Q14.06-30.03 12.11-30.03Z" opacity="1" transform="matrix(1,0,0,1,0,0)" fill="#ffffff" class="wordmark-text-0" data-fill-palette-color="primary" id="text-0"></path></svg></g></svg></g></svg></g></svg></g></svg></g></svg></g></svg></g><path d="M304.677 41.215L304.677 0 57.477 0 57.477 247.2 304.677 247.2 304.677 205.985 290.9 205.985 290.9 233.423 71.254 233.423 71.254 13.777 290.9 13.777 290.9 41.215Z" fill="#ffffff" stroke="transparent" data-fill-palette-color="tertiary"></path></svg></g><defs></defs></svg><rect width="395.52" height="247.2" fill="none" stroke="none" visibility="hidden"></rect></g></svg></g></svg>